<?xml version="1.0" standalone="no"?>
<!DOCTYPE svg PUBLIC "-//W3C//DTD SVG 20010904//EN"
 "http://www.w3.org/TR/2001/REC-SVG-20010904/DTD/svg10.dtd">
<svg version="1.0" xmlns="http://www.w3.org/2000/svg"
 width="500.000000pt" height="500.000000pt" viewBox="0 0 500.000000 500.000000"
 preserveAspectRatio="xMidYMid meet">

<g transform="translate(0.000000,500.000000) scale(0.100000,-0.100000)"
fill="#000000" stroke="none">
<path d="M2368 3755 c-72 -25 -138 -66 -178 -111 -14 -15 -18 -23 -10 -19 13
7 13 6 2 -7 -7 -9 -15 -26 -17 -38 -2 -13 -12 -31 -20 -40 -46 -50 -57 -183
-25 -289 52 -173 192 -286 369 -298 94 -7 193 19 259 66 l41 30 58 -35 c75
-45 141 -64 224 -64 141 0 262 64 341 180 49 74 69 148 70 272 2 94 0 108 -26
156 -36 72 -105 134 -195 180 -68 34 -83 37 -173 40 -108 4 -194 -17 -264 -64
l-36 -25 -40 26 c-104 69 -253 84 -380 40z"/>
<path d="M4536 2428 c-29 -46 -69 -110 -88 -143 -22 -37 -41 -58 -49 -56 -74
21 -208 -69 -263 -176 -23 -46 -61 -83 -86 -83 -22 0 -8 54 40 147 55 107 59
123 32 123 -26 0 -46 -18 -78 -70 -34 -55 -171 -197 -181 -187 -4 4 17 57 47
117 43 87 52 112 42 122 -20 20 -40 0 -97 -102 -29 -52 -65 -107 -80 -122 -33
-33 -75 -38 -75 -8 0 22 70 159 124 244 35 55 37 56 82 56 25 0 54 5 65 10 30
17 4 50 -39 50 l-34 0 21 33 c23 37 19 47 -14 47 -15 0 -32 -14 -49 -39 -24
-34 -33 -39 -79 -45 -57 -8 -97 -29 -97 -50 0 -19 23 -26 66 -19 l38 6 -21
-34 c-120 -196 -148 -282 -107 -323 19 -20 84 -21 109 -2 17 12 22 11 46 -7
l28 -20 45 27 c24 14 56 41 70 58 l26 33 -2 -37 c-1 -20 5 -44 12 -53 18 -21
73 -19 104 6 14 11 26 16 26 10 0 -6 9 -15 20 -21 31 -17 81 4 139 56 l50 45
-10 -36 c-14 -51 2 -75 49 -75 21 0 48 7 60 16 21 14 25 14 40 1 31 -27 60
-29 108 -8 41 19 48 19 67 6 29 -21 60 -19 109 6 84 43 195 191 186 250 -4 27
-52 57 -94 58 -64 2 -168 -89 -210 -185 -13 -29 -33 -59 -46 -68 -25 -18 -68
-21 -68 -6 0 6 27 57 61 115 63 108 69 138 32 143 -30 4 -103 -62 -86 -78 8
-9 1 -30 -33 -85 -43 -71 -78 -105 -109 -105 -8 0 -15 6 -15 13 0 25 96 211
184 355 108 178 106 172 67 172 -28 0 -37 -8 -85 -82z m322 -254 c14 -15 14
-20 -7 -60 -30 -56 -123 -144 -152 -144 -52 0 11 129 93 189 49 36 45 35 66
15z m-487 -13 c-18 -33 -162 -181 -177 -181 -18 0 -18 4 2 43 30 59 65 97 117
127 61 35 71 37 58 11z"/>
<path d="M465 2481 c-76 -22 -116 -43 -165 -87 -64 -58 -64 -131 1 -158 l29
-12 -50 -37 c-110 -82 -141 -172 -81 -239 28 -32 32 -33 103 -33 88 1 163 33
244 107 55 51 78 91 72 130 -5 34 -45 38 -54 4 -8 -33 -97 -114 -158 -145 -94
-46 -166 -46 -166 0 0 76 129 188 241 209 57 11 69 21 69 59 0 23 -2 23 -52
16 -78 -11 -157 -10 -170 3 -19 19 17 58 84 90 81 39 118 47 118 27 0 -22 40
-28 85 -12 34 12 40 18 40 43 0 54 -76 68 -190 35z"/>
<path d="M3542 2489 c-68 -12 -189 -62 -241 -100 -49 -35 -70 -66 -78 -113 -5
-31 -1 -40 25 -64 29 -27 55 -38 192 -76 75 -21 88 -31 74 -53 -31 -50 -139
-93 -235 -93 -59 0 -113 16 -103 31 8 14 -20 11 -34 -3 -7 -7 -12 -25 -12 -40
0 -116 361 -74 448 52 56 83 10 141 -148 190 -58 17 -112 38 -120 47 -13 13
-11 19 25 50 48 42 111 75 184 97 69 20 74 20 66 -4 -5 -16 -2 -20 17 -20 75
2 138 30 138 62 0 32 -110 53 -198 37z"/>
<path d="M4097 2379 c-72 -65 -91 -108 -39 -88 47 18 121 70 127 90 7 21 -2
59 -13 59 -4 0 -38 -27 -75 -61z"/>
<path d="M1615 2355 c-30 -29 -29 -59 1 -63 14 -2 29 7 43 24 42 53 3 87 -44
39z"/>
<path d="M2062 2357 c-30 -32 -29 -67 1 -67 36 0 62 35 58 78 -2 20 -36 14
-59 -11z"/>
<path d="M4665 2355 c-30 -29 -29 -59 1 -63 14 -2 29 7 43 24 42 53 3 87 -44
39z"/>
<path d="M1277 2308 c-13 -18 -57 -86 -98 -152 -76 -122 -134 -186 -169 -186
-32 0 -24 28 30 113 75 117 83 136 69 153 -28 34 -91 12 -166 -58 l-55 -53 18
38 c34 71 -17 99 -89 50 -67 -45 -74 -49 -54 -26 44 51 -5 75 -51 24 -35 -37
-155 -268 -147 -281 3 -5 17 -10 29 -10 17 0 33 15 61 58 67 101 195 222 195
184 0 -4 -27 -54 -60 -111 -33 -57 -60 -110 -60 -118 0 -7 11 -13 24 -13 18 0
38 17 74 63 50 62 184 197 197 197 7 0 2 -10 -37 -68 -85 -125 -83 -202 6
-202 14 0 26 -2 26 -4 0 -3 -23 -43 -51 -89 -51 -86 -60 -129 -29 -135 9 -1
24 12 34 30 11 18 48 78 84 132 53 82 66 97 73 83 12 -21 69 -23 107 -3 33 17
120 108 149 156 80 135 31 192 -96 110 l-61 -40 55 83 c30 45 55 87 55 94 0
25 -39 13 -63 -19z m71 -180 c-6 -18 -37 -58 -67 -89 -55 -57 -103 -81 -122
-62 -19 19 168 202 192 188 4 -3 3 -20 -3 -37z"/>
<path d="M2825 2246 c-100 -32 -175 -92 -175 -142 0 -29 26 -47 103 -68 31 -9
57 -21 57 -27 0 -14 -63 -39 -101 -39 -23 0 -32 5 -36 20 -8 29 -35 21 -47
-13 -15 -43 2 -61 60 -65 64 -4 116 12 159 49 57 50 44 102 -30 122 -11 3 -40
11 -63 17 -42 11 -43 12 -27 30 33 36 149 81 130 50 -10 -17 24 -23 55 -10 38
16 51 57 25 77 -23 16 -57 16 -110 -1z"/>
<path d="M1503 2206 c-28 -26 -35 -38 -27 -46 8 -8 0 -31 -32 -88 -48 -84 -53
-109 -26 -142 20 -24 43 -27 123 -15 37 6 52 14 70 39 67 91 229 251 200 198
-30 -56 8 -93 46 -46 31 39 57 100 50 118 -13 34 -93 10 -154 -46 l-22 -21 20
39 20 39 -26 3 c-36 5 -45 -5 -114 -123 -33 -56 -72 -112 -87 -124 -28 -22
-74 -29 -74 -11 0 6 27 57 61 115 33 57 59 112 57 122 -6 32 -44 27 -85 -11z"/>
<path d="M1952 2207 c-20 -20 -30 -40 -27 -49 3 -8 -12 -48 -34 -89 -23 -41
-41 -86 -41 -100 0 -28 22 -53 57 -63 24 -8 105 23 117 43 5 8 18 3 39 -15 28
-23 37 -26 92 -22 34 3 80 14 108 27 l47 23 21 -26 c35 -45 104 -29 182 43
110 101 160 241 87 241 -10 0 -22 5 -25 10 -10 16 -53 12 -93 -9 -52 -27 -121
-98 -143 -147 -32 -71 -89 -103 -186 -104 -48 0 -53 2 -59 25 -9 35 2 68 33
106 54 64 146 116 128 72 -19 -47 -18 -53 9 -53 19 0 32 9 46 33 24 39 25 51
4 71 -39 40 -165 -2 -229 -76 -19 -23 -42 -63 -50 -89 -9 -27 -28 -58 -42 -69
-27 -21 -73 -27 -73 -9 0 5 28 59 61 119 35 62 59 116 55 125 -9 26 -50 17
-84 -18z m608 -56 c0 -20 -42 -84 -83 -128 -36 -39 -84 -60 -99 -45 -38 38
127 235 169 200 7 -6 13 -18 13 -27z"/>
<path d="M2280 1489 c-63 -25 -91 -82 -70 -144 16 -47 57 -75 113 -75 52 0
100 30 80 50 -8 9 -20 9 -48 -1 -31 -11 -40 -11 -63 2 -34 19 -43 80 -16 110
19 21 73 26 92 7 8 -8 15 -8 27 2 23 19 18 30 -20 46 -39 16 -60 17 -95 3z"/>
<path d="M970 1380 l0 -110 25 0 c24 0 25 3 25 63 l0 62 30 -50 c16 -27 35
-50 41 -50 7 0 28 25 46 55 l33 55 0 -67 c0 -66 1 -68 25 -68 l25 0 0 110 0
110 -25 0 c-19 0 -31 -13 -61 -66 -42 -76 -40 -76 -96 20 -18 31 -34 46 -48
46 -19 0 -20 -6 -20 -110z"/>
<path d="M1326 1386 c-25 -57 -46 -106 -46 -110 0 -3 11 -6 23 -6 16 0 28 9
35 25 10 22 18 25 62 25 44 0 52 -3 62 -25 7 -16 19 -25 35 -25 12 0 23 3 23
6 0 4 -21 53 -46 110 -43 95 -49 104 -74 104 -25 0 -31 -9 -74 -104z m93 13
c6 -18 11 -34 11 -35 0 -2 -13 -4 -30 -4 -16 0 -30 2 -30 4 0 14 24 66 30 66
4 0 13 -14 19 -31z"/>
<path d="M1580 1380 l0 -110 25 0 c21 0 25 5 25 29 0 16 7 35 16 42 14 12 21
8 53 -29 26 -31 43 -42 64 -42 l28 0 -45 59 c-25 33 -46 63 -46 67 0 5 19 28
42 51 l42 43 -31 0 c-25 0 -40 -10 -77 -51 l-46 -51 0 51 c0 48 -2 51 -25 51
l-25 0 0 -110z"/>
<path d="M1850 1380 l0 -110 85 0 c78 0 85 2 85 20 0 18 -7 20 -60 20 -57 0
-60 1 -60 25 0 23 3 25 50 25 43 0 50 3 50 20 0 17 -7 20 -50 20 -47 0 -50 2
-50 25 0 24 3 25 60 25 53 0 60 2 60 20 0 18 -7 20 -85 20 l-85 0 0 -110z"/>
<path d="M2480 1380 l0 -110 30 0 c27 0 30 3 30 30 0 25 4 30 24 30 17 0 31
-10 43 -30 13 -22 25 -30 46 -30 l28 0 -20 29 c-26 36 -26 37 -1 68 27 34 25
69 -5 98 -21 22 -33 25 -100 25 l-75 0 0 -110z m140 50 c13 -25 -18 -60 -55
-60 -22 0 -25 4 -25 40 0 39 1 40 35 40 24 0 37 -6 45 -20z"/>
<path d="M2750 1380 l0 -110 85 0 c78 0 85 2 85 20 0 18 -7 20 -60 20 -57 0
-60 1 -60 24 0 23 4 25 52 28 40 2 54 7 56 20 3 14 -6 17 -50 20 -46 3 -53 6
-56 26 -3 21 0 22 57 22 54 0 61 2 61 20 0 18 -7 20 -85 20 l-85 0 0 -110z"/>
<path d="M3020 1389 c-25 -57 -46 -106 -48 -111 -2 -4 8 -8 22 -8 19 0 29 7
36 25 8 22 15 25 60 25 44 0 52 -3 62 -25 8 -18 19 -25 39 -25 l27 0 -48 108
c-43 97 -50 107 -76 110 -28 3 -31 -1 -74 -99z m100 -20 c0 -5 -13 -9 -30 -9
-35 0 -34 -3 -14 46 l16 38 14 -33 c8 -18 14 -37 14 -42z"/>
<path d="M3250 1470 c0 -16 7 -20 35 -20 l35 0 0 -90 c0 -89 0 -90 25 -90 25
0 25 1 25 90 l0 90 35 0 c28 0 35 4 35 20 0 19 -7 20 -95 20 -88 0 -95 -1 -95
-20z"/>
<path d="M3500 1380 l0 -110 30 0 30 0 0 110 0 110 -30 0 -30 0 0 -110z"/>
<path d="M3636 1433 c14 -32 35 -82 47 -110 19 -45 26 -53 48 -53 24 0 31 10
69 98 23 53 44 103 47 110 4 10 -2 13 -22 10 -23 -3 -31 -13 -58 -76 -16 -40
-33 -69 -37 -65 -4 4 -20 38 -35 76 -25 60 -31 67 -56 67 l-29 0 26 -57z"/>
<path d="M3910 1380 l0 -110 85 0 c78 0 85 2 85 20 0 18 -7 20 -60 20 -57 0
-60 1 -60 24 0 23 4 25 52 28 40 2 54 7 56 20 3 14 -6 17 -50 20 -46 3 -53 6
-56 26 -3 21 0 22 57 22 54 0 61 2 61 20 0 18 -7 20 -85 20 l-85 0 0 -110z"/>
</g>
</svg>
